<svg width="148" height="32" viewBox="0 0 148 32" fill="none" xmlns="http://www.w3.org/2000/svg">
<path d="M0.0721673 0.487793H0V31.514H0.0721673C8.61926 31.514 15.548 24.5686 15.548 16.0009C15.548 7.43325 8.61926 0.487793 0.0721673 0.487793Z" fill="white"/>
<path d="M0.224121 31.4115H15.2269C23.774 31.4115 30.7028 24.466 30.7028 15.8984C30.7028 7.33071 23.774 0.385254 15.2269 0.385254H0.224121V31.4115Z" fill="white" fill-opacity="0.3"/>
<path fill-rule="evenodd" clip-rule="evenodd" d="M50.898 5.71005H53.4593V5.70361C53.4909 5.70361 53.5211 5.71616 53.5435 5.73849C53.5658 5.76083 53.5783 5.79112 53.5783 5.82271V21.3079C53.5783 21.3394 53.5658 21.3697 53.5435 21.3921C53.5211 21.4144 53.4909 21.4269 53.4593 21.4269H50.898C50.8323 21.4269 50.779 21.3736 50.779 21.3079V20.1314C49.9108 21.1276 48.4653 21.7408 46.9362 21.7408C42.9937 21.7408 40.6382 18.4867 40.6382 15.3388C40.6382 12.2472 43.2172 8.93679 47.0584 8.93679C48.6229 8.93679 49.9895 9.52742 50.779 10.5284V5.82914C50.779 5.79756 50.7915 5.76727 50.8139 5.74493C50.8362 5.7226 50.8664 5.71005 50.898 5.71005ZM43.5874 15.3331C43.5874 17.3738 45.2178 19.0399 47.2562 19.0821C49.2194 19.0821 50.8787 17.3633 50.8787 15.3323C50.8787 13.3013 49.2194 11.5842 47.2562 11.5842C45.2178 11.6264 43.5874 13.2925 43.5874 15.3331Z" fill="white"/>
<path fill-rule="evenodd" clip-rule="evenodd" d="M55.6396 15.3388C55.6396 12.236 57.9887 8.93679 62.3299 8.93679C64.9459 8.93679 68.628 11.0531 68.628 15.7588V16.2255C68.6284 16.2574 68.616 16.2881 68.5937 16.3108C68.5713 16.3335 68.5408 16.3462 68.509 16.3462H58.7396C58.9421 17.9829 60.4584 19.2431 62.2511 19.2431C63.5599 19.2431 64.7192 18.6202 65.6003 17.4422C65.6377 17.3917 65.7072 17.3778 65.7611 17.41L67.9237 18.6106C67.9542 18.6275 67.9759 18.6569 67.9832 18.6911C67.9901 18.7257 67.9813 18.7617 67.9591 18.7892C66.4702 20.6689 64.4716 21.7166 62.3315 21.7408C57.9839 21.7408 55.6396 18.4416 55.6396 15.3388ZM65.3431 13.9885C64.8109 12.3905 63.5664 11.4425 61.9858 11.4425H61.9826C60.4182 11.4425 59.1962 12.413 58.7669 13.9885H65.3431Z" fill="white"/>
<path d="M77.2204 14.3104L74.6349 13.8163C73.6445 13.6441 73.1879 13.282 73.1879 12.6785C73.1879 11.7789 74.2555 11.2945 75.2604 11.2945C76.3087 11.2945 77.3506 11.7338 78.3829 12.5965C78.4075 12.6171 78.4392 12.6275 78.4713 12.6254C78.5032 12.6224 78.5324 12.606 78.5517 12.5804L79.9988 10.7827C80.0191 10.7567 80.0283 10.7238 80.0245 10.691C80.0195 10.6585 80.0015 10.6294 79.9747 10.6105C78.3523 9.45339 76.8731 8.93679 75.18 8.93679C72.0302 8.93679 70.3837 10.9549 70.3837 12.9489C70.3837 14.901 71.6121 15.8876 74.7636 16.4669L76.2106 16.7389C77.1754 16.9159 77.6577 17.3408 77.6577 18.0006C77.6577 18.5655 76.8538 19.3847 75.4067 19.3847C74.167 19.3847 72.6991 18.6959 71.752 17.6723C71.7303 17.6483 71.6992 17.6348 71.6668 17.6353C71.634 17.6335 71.6021 17.6465 71.58 17.6707L69.8322 19.441C69.8094 19.4647 69.7972 19.4966 69.7984 19.5295C69.7997 19.563 69.8149 19.5945 69.8403 19.6164C71.5221 21.0439 73.302 21.7376 75.2829 21.7376C76.9422 21.7376 78.3121 21.2547 79.2463 20.3519C80.0002 19.6348 80.4337 18.644 80.449 17.6031C80.449 15.7926 79.3862 14.7144 77.2011 14.3072" fill="white"/>
<path fill-rule="evenodd" clip-rule="evenodd" d="M85.1439 10.5638C86.0845 9.51294 87.4384 8.93679 88.9884 8.93679V8.93358C92.9308 8.93358 95.2864 12.1893 95.2864 15.3356C95.2864 18.4271 92.7057 21.7376 88.8662 21.7376C87.3017 21.7376 85.935 21.1485 85.1439 20.1459V25.4165C85.1439 25.4823 85.0907 25.5356 85.025 25.5356H82.4652C82.3995 25.5356 82.3462 25.4823 82.3462 25.4165V9.37776C82.3458 9.34589 82.3582 9.31519 82.3805 9.2925C82.4029 9.26982 82.4334 9.25705 82.4652 9.25705H85.025C85.0568 9.25705 85.0873 9.26982 85.1097 9.2925C85.132 9.31519 85.1444 9.34589 85.1439 9.37776V10.5638ZM92.3355 15.3364C92.3355 13.2957 90.7051 11.6297 88.6668 11.5874C86.7036 11.5874 85.0443 13.303 85.0443 15.3356C85.0443 17.3682 86.7036 19.0853 88.6668 19.0853C90.7051 19.0431 92.3355 17.377 92.3355 15.3364Z" fill="white"/>
<path fill-rule="evenodd" clip-rule="evenodd" d="M96.7238 15.3388C96.7238 12.2373 99.0725 8.93958 103.41 8.9368C106.026 8.93903 109.704 11.0556 109.704 15.7588V16.2255C109.705 16.2574 109.692 16.2881 109.67 16.3108C109.647 16.3335 109.617 16.3462 109.585 16.3462H99.8222C100.025 17.9829 101.541 19.2431 103.332 19.2431C104.641 19.2431 105.8 18.6202 106.683 17.4422C106.72 17.391 106.79 17.377 106.844 17.41L109.008 18.6106C109.039 18.6276 109.06 18.6572 109.067 18.6917C109.074 18.7261 109.065 18.7618 109.043 18.7892C107.554 20.6689 105.554 21.7166 103.416 21.7408C99.0745 21.7408 96.7238 18.4416 96.7238 15.3388ZM103.41 8.9368C103.412 8.9368 103.414 8.93679 103.416 8.93679H103.406C103.407 8.93679 103.409 8.9368 103.41 8.9368ZM106.419 13.9885C105.887 12.3905 104.643 11.4425 103.062 11.4425H103.059C101.493 11.4425 100.272 12.413 99.8431 13.9885H106.419Z" fill="white"/>
<path fill-rule="evenodd" clip-rule="evenodd" d="M121.284 9.25705H123.697C123.763 9.25705 123.816 9.31037 123.816 9.37615V19.9721C123.816 21.8566 123.146 23.4724 121.874 24.6392C120.666 25.7248 119.094 26.3164 117.47 26.2968C115.49 26.2984 113.614 25.4127 112.356 23.8828C112.335 23.8575 112.326 23.825 112.33 23.7927C112.335 23.7606 112.352 23.7317 112.378 23.7122L114.468 22.1849C114.494 22.1659 114.526 22.1578 114.558 22.1624C114.59 22.1685 114.618 22.1863 114.637 22.2123C115.144 22.922 116.237 23.6398 117.345 23.6398C119.184 23.6398 121.165 22.5744 121.165 20.236V19.7532C120.049 20.9023 118.83 21.4173 117.223 21.4173C114.288 21.4173 111.318 19.2865 111.318 15.2133C111.318 11.0933 114.438 8.93679 117.517 8.93679C119.038 8.93679 120.292 9.47754 121.165 10.5027V9.37615C121.165 9.31037 121.218 9.25705 121.284 9.25705ZM114.274 15.1666C114.274 17.2539 115.735 18.7683 117.748 18.7683C119.702 18.7683 121.175 17.2298 121.175 15.1907C121.175 13.2 119.638 11.5906 117.748 11.5906C115.833 11.5906 114.274 13.1951 114.274 15.1666Z" fill="white"/>
<path fill-rule="evenodd" clip-rule="evenodd" d="M135.768 9.25705H138.327V9.26349C138.393 9.26349 138.446 9.31681 138.446 9.38258V21.3079C138.446 21.3736 138.393 21.4269 138.327 21.4269H135.768C135.702 21.4269 135.649 21.3736 135.649 21.3079V20.1314C134.779 21.1276 133.333 21.7408 131.804 21.7408C127.862 21.7408 125.506 18.4867 125.506 15.3388C125.506 12.2472 128.087 8.93679 131.928 8.93679C133.491 8.93679 134.858 9.52743 135.649 10.5284V9.37615C135.649 9.31037 135.702 9.25705 135.768 9.25705ZM128.456 15.346C128.456 17.3867 130.086 19.0527 132.124 19.095C134.087 19.095 135.747 17.3762 135.747 15.3452C135.747 13.3142 134.087 11.597 132.124 11.597C130.086 11.6393 128.456 13.3054 128.456 15.346Z" fill="white"/>
<path d="M147.671 9.32626C147.228 9.06025 146.719 8.92522 146.203 8.93679C145.261 8.94409 144.395 9.45563 143.934 10.2774V9.37776C143.934 9.34589 143.922 9.31519 143.9 9.2925C143.877 9.26982 143.847 9.25705 143.815 9.25705H141.403C141.337 9.25705 141.283 9.31109 141.283 9.37776V21.3014C141.284 21.3677 141.337 21.4213 141.403 21.4221H143.963C144.029 21.4212 144.082 21.3675 144.082 21.3014V13.4156C144.069 12.9708 144.238 12.5401 144.55 12.2232C144.863 11.9064 145.29 11.7307 145.735 11.7371C146.053 11.7635 146.359 11.8746 146.621 12.0589C146.65 12.083 146.69 12.0909 146.727 12.0799C146.765 12.0707 146.795 12.0427 146.807 12.0058L147.719 9.46788C147.737 9.41566 147.717 9.35802 147.671 9.32787" fill="white"/>
</svg>
